<?xml version="1.0" encoding="iso-8859-1"?>
<!-- Generator: Adobe Illustrator 19.1.0, SVG Export Plug-In . SVG Version: 6.00 Build 0)  -->
<svg version="1.1" id="Capa_1" xmlns="http://www.w3.org/2000/svg" xmlns:xlink="http://www.w3.org/1999/xlink" x="0px" y="0px"
	 viewBox="0 0 62.731 62.731" style="enable-background:new 0 0 62.731 62.731;" xml:space="preserve">
<g>
	<g id="group-2svg">
		<path id="path-1_10_" d="M51.629,40.035H15.142c-0.692,0-1.293-0.472-1.457-1.143l-4.901-20c-0.109-0.448-0.008-0.92,0.278-1.283
			c0.284-0.362,0.718-0.574,1.179-0.574h50.991c0.515,0,0.995,0.265,1.269,0.701c0.274,0.437,0.306,0.983,0.083,1.448l-9.602,20
			C52.732,39.704,52.206,40.035,51.629,40.035z M16.318,37.035h34.368l8.162-17H12.153L16.318,37.035z"/>
		<path id="path-2_10_" d="M60.797,50.035h-3.5c-0.828,0-1.5-0.671-1.5-1.5s0.672-1.5,1.5-1.5h2.427v-7H16.957l1.345,7h1.995
			c0.828,0,1.5,0.671,1.5,1.5s-0.672,1.5-1.5,1.5h-3.234c-0.72,0-1.337-0.511-1.473-1.217l-1.921-10
			c-0.085-0.44,0.031-0.894,0.316-1.238c0.286-0.345,0.709-0.545,1.157-0.545h45.655c0.828,0,1.927,0.671,1.927,1.5v10
			C62.724,49.364,61.625,50.035,60.797,50.035z"/>
		<path id="path-3_10_" d="M43.297,50.035h-10c-0.828,0-1.5-0.671-1.5-1.5s0.672-1.5,1.5-1.5h10c0.828,0,1.5,0.671,1.5,1.5
			S44.125,50.035,43.297,50.035z"/>
		<path id="path-4_8_" d="M50.381,57.336c-4.004,0-7.262-3.257-7.262-7.261s3.258-7.261,7.262-7.261s7.261,3.257,7.261,7.261
			S54.385,57.336,50.381,57.336z M50.381,45.814c-2.35,0-4.262,1.911-4.262,4.261c0,2.35,1.912,4.261,4.262,4.261
			c2.35,0,4.261-1.911,4.261-4.261C54.642,47.725,52.731,45.814,50.381,45.814z"/>
		<path id="path-5_7_" d="M27.288,57.336c-4.004,0-7.261-3.257-7.261-7.261s3.257-7.261,7.261-7.261s7.262,3.257,7.262,7.261
			S31.292,57.336,27.288,57.336z M27.288,45.814c-2.349,0-4.261,1.911-4.261,4.261c0,2.35,1.912,4.261,4.261,4.261
			c2.35,0,4.262-1.911,4.262-4.261C31.55,47.725,29.638,45.814,27.288,45.814z"/>
		<path id="path-6_3_" d="M17.062,49.615c-0.673,0-1.285-0.455-1.454-1.137L6.005,9.986C5.975,9.867,5.96,9.745,5.96,9.623
			c0-0.665-0.674-1.227-1.472-1.227C3.653,8.396,3,9.086,3,9.968c0,0.542,0.266,1.042,0.712,1.337
			c0.689,0.459,0.878,1.39,0.419,2.08c-0.456,0.69-1.388,0.878-2.079,0.419C0.767,12.951,0,11.516,0,9.968
			c0-2.521,2.014-4.572,4.488-4.572c2.393,0,4.353,1.786,4.467,4.022l9.563,38.334c0.201,0.803-0.288,1.617-1.092,1.818
			C17.304,49.601,17.182,49.615,17.062,49.615z"/>
	</g>
</g>
<g>
</g>
<g>
</g>
<g>
</g>
<g>
</g>
<g>
</g>
<g>
</g>
<g>
</g>
<g>
</g>
<g>
</g>
<g>
</g>
<g>
</g>
<g>
</g>
<g>
</g>
<g>
</g>
<g>
</g>
</svg>
